<svg width="34" height="34" viewBox="0 0 34 34" fill="none" xmlns="http://www.w3.org/2000/svg">
<circle cx="17" cy="17" r="17" fill="#462BE8"/>
<g clip-path="url(#clip0_2284_2458)">
<path d="M21.845 17.5546C21.2768 17.5546 20.7087 17.5562 20.1389 17.5546C19.607 17.553 19.1986 17.777 18.9071 18.2168C18.3505 19.0537 17.4003 19.426 16.4337 19.1855C15.4292 18.9367 14.7326 18.0093 14.749 16.9484C14.7655 15.9188 15.5082 15.0095 16.5243 14.8036C17.3674 14.6322 18.1002 14.8629 18.6815 15.502C19.7486 16.6749 21.4893 16.7836 22.6782 15.7392C22.8396 15.5976 22.9681 15.4262 23.085 15.245C24.1488 13.5878 26.4971 13.2814 27.9397 14.6141C29.6243 16.1708 29.2472 18.8593 27.197 19.8971C26.6667 20.1656 26.0969 20.243 25.5074 20.2249C24.4156 20.1903 23.4077 20.4737 22.5333 21.126C21.1813 22.1342 20.404 23.4866 20.2328 25.1735C20.1982 25.5079 20.2344 25.8456 20.1982 26.18C20.0335 27.7368 18.6371 28.997 17.0677 29.0003C15.4061 29.0036 14.1019 27.9345 13.8269 26.3398C13.7791 26.0631 13.789 25.783 13.7923 25.5013C13.8022 24.4207 13.4975 23.4339 12.8059 22.5971C12.2031 21.8706 11.5346 21.21 10.67 20.7834C9.89931 20.4045 9.08581 20.2299 8.22949 20.2216C7.04546 20.2085 6.12492 19.6961 5.48927 18.6995C4.72846 17.5068 4.87008 15.9221 5.81697 14.8711C6.4658 14.1512 7.28095 13.8184 8.2476 13.7756C10.2896 13.6834 11.9693 12.8712 13.1253 11.1399C13.6852 10.3014 13.8614 9.35253 13.7906 8.34271C13.7346 7.54705 13.9882 6.81893 14.502 6.20283C15.742 4.71364 17.8532 4.59338 19.2612 5.91948C20.5934 7.17475 20.5325 9.41677 19.1344 10.6374C18.8314 10.9027 18.8314 10.9027 18.5448 10.616C18.1694 10.2404 17.7939 9.8632 17.4168 9.48761C17.1039 9.17626 16.7696 9.17791 16.4551 9.49255C14.1167 11.8318 11.7766 14.171 9.43822 16.5102C9.10886 16.8397 9.10722 17.2663 9.43986 17.5974C11.77 19.9284 14.1002 22.2594 16.4304 24.5887C16.7499 24.9083 17.1237 24.9067 17.4464 24.5854C19.5905 22.4422 21.7346 20.2958 23.8804 18.1526C23.9973 18.0356 24.078 17.9154 24.0055 17.7473C23.9331 17.5826 23.7931 17.5513 23.6268 17.553C23.0306 17.5579 22.4378 17.5546 21.845 17.5546Z" fill="white"/>
</g>
<defs>
<clipPath id="clip0_2284_2458">
<rect width="24" height="24" fill="white" transform="translate(5 5)"/>
</clipPath>
</defs>
</svg>
