<?xml version="1.0" encoding="UTF-8"?>
<svg id="Capa_2" data-name="Capa 2" xmlns="http://www.w3.org/2000/svg" viewBox="0 0 22.66 22.67">
  <defs>
    <style>
      .cls-1 {
        fill: #0c0100;
      }

      .cls-2 {
        fill: #e3bd52;
      }
    </style>
  </defs>
  <g id="Capa_2-2" data-name="Capa 2" focusable="false">
    <g id="Capa_1-2" data-name="Capa 1-2">
      <g id="logo">
        <circle class="cls-1" cx="11.33" cy="11.33" r="10.56"/>
        <path class="cls-2" d="m11.33,22.67C5.08,22.67,0,17.58,0,11.33S5.08,0,11.33,0s11.33,5.08,11.33,11.33-5.08,11.33-11.33,11.33h0Zm0-21.13C5.94,1.54,1.54,5.94,1.54,11.33s4.39,9.79,9.79,9.79,9.79-4.39,9.79-9.79S16.73,1.54,11.33,1.54Z"/>
        <path class="cls-2" d="m7.3,6.34l1.3.71v1.05l-1.3.9v-2.66Z"/>
        <path class="cls-2" d="m15.37,6.34l-1.31.71v1.05l1.31.9v-2.66Z"/>
        <path class="cls-2" d="m16.32,9.54s-2.11,1.57-2.73,2.14c-.63.57-2.25,2.41-2.25,2.41,0,0-1.63-1.84-2.25-2.41-.62-.56-2.73-2.14-2.73-2.14,0,0-1.07.71-1.19.71,0,0,2.49,1.91,3.2,2.61.83.82,2.97,3.47,2.97,3.47,0,0,2.14-2.65,2.97-3.47.71-.7,3.2-2.61,3.2-2.61-.12,0-1.19-.71-1.19-.71Z"/>
        <path class="cls-2" d="m12.28,11.44l1.66-1.54s-.2-.54-.71-.24c-.59.36-.95,1.78-.95,1.78Zm-1.78,0l-1.66-1.54s.2-.54.71-.24c.59.36.95,1.78.95,1.78Z"/>
      </g>
    </g>
    <g>
      <path class="cls-2" d="m7.48,18.22v-.07h.1c.08,0,.15-.03.21-.08s.09-.14.09-.27c0-.11-.03-.19-.08-.25s-.13-.08-.22-.08c-.06,0-.1,0-.13.03-.02.02-.04.06-.04.12v.9s0,.09,0,.11c0,.02.02.04.04.06.02.01.04.02.06.02.02,0,.06,0,.12.01v.06h-.61v-.06s.06,0,.07,0c.02,0,.03,0,.05,0,.02,0,.03-.01.04-.02,0,0,.01-.02.02-.04s.01-.03.01-.05c0-.02,0-.05,0-.08v-.85c0-.09,0-.15-.03-.17-.02-.02-.07-.03-.15-.04v-.06h.55c.15,0,.27.03.35.1s.12.17.12.3-.05.24-.14.32c-.09.08-.2.12-.32.12-.02,0-.05,0-.09,0-.04,0-.06,0-.06,0Z"/>
      <path class="cls-2" d="m8.77,18.77h-.56v-.06c.09,0,.14-.02.16-.04.02-.02.03-.08.03-.17v-.85c0-.09,0-.14-.03-.17-.02-.02-.07-.03-.16-.04v-.06h.56v.06c-.09,0-.14.02-.16.04-.02.02-.03.08-.03.17v.85c0,.09,0,.14.03.17.02.02.07.03.16.04v.06Z"/>
      <path class="cls-2" d="m9.36,18.22v-.07h.1c.08,0,.15-.03.21-.08s.09-.14.09-.27c0-.11-.03-.19-.08-.25s-.13-.08-.22-.08c-.06,0-.1,0-.13.03-.02.02-.04.06-.04.12v.9s0,.09,0,.11c0,.02.02.04.04.06.02.01.04.02.06.02.02,0,.06,0,.12.01v.06h-.61v-.06s.06,0,.07,0c.02,0,.03,0,.05,0,.02,0,.03-.01.04-.02,0,0,.01-.02.02-.04s.01-.03.01-.05c0-.02,0-.05,0-.08v-.85c0-.09,0-.15-.03-.17-.02-.02-.07-.03-.15-.04v-.06h.55c.15,0,.27.03.35.1s.12.17.12.3-.05.24-.14.32c-.09.08-.2.12-.32.12-.02,0-.05,0-.09,0-.04,0-.06,0-.06,0Z"/>
      <path class="cls-2" d="m10.64,18.77h-.56v-.06c.09,0,.14-.02.16-.04.02-.02.03-.08.03-.17v-.85c0-.09,0-.14-.03-.17-.02-.02-.07-.03-.16-.04v-.06h.56v.06c-.09,0-.14.02-.16.04-.02.02-.03.08-.03.17v.85c0,.09,0,.14.03.17.02.02.07.03.16.04v.06Z"/>
      <path class="cls-2" d="m11.83,18.77h-1.01v-.11h1.01v.11Z"/>
      <path class="cls-2" d="m13.02,18.42h.06s-.03.34-.03.34h-1.06v-.06c.09,0,.15-.02.17-.04.03-.02.04-.08.04-.16v-.85c0-.09,0-.14-.03-.16-.02-.02-.07-.03-.16-.04v-.06h.55v.06c-.08,0-.14.02-.16.04-.02.02-.03.08-.03.16v.84c0,.06,0,.1,0,.12s.02.04.04.05c.03.02.12.03.25.03.11,0,.18-.02.22-.05s.08-.11.12-.22Z"/>
      <path class="cls-2" d="m13.89,17.37c.18,0,.34.06.47.19s.19.29.19.5c0,.22-.07.4-.19.54-.13.13-.29.2-.49.2s-.35-.07-.48-.2c-.13-.13-.19-.3-.19-.5,0-.13.03-.25.08-.36.05-.11.13-.2.24-.27s.23-.1.37-.1Zm-.05.08h-.02c-.12,0-.22.06-.3.16-.08.1-.12.25-.12.45s.05.36.14.48c.09.12.21.19.36.19h.02c.12,0,.22-.06.29-.16.07-.1.11-.26.11-.46s-.05-.37-.14-.49c-.09-.11-.21-.17-.35-.17Z"/>
      <path class="cls-2" d="m15.72,18.42h.06s-.03.34-.03.34h-1.06v-.06c.09,0,.15-.02.17-.04.03-.02.04-.08.04-.16v-.85c0-.09,0-.14-.03-.16-.02-.02-.07-.03-.16-.04v-.06h.55v.06c-.08,0-.14.02-.16.04-.02.02-.03.08-.03.16v.84c0,.06,0,.1,0,.12s.02.04.04.05c.03.02.12.03.25.03.11,0,.18-.02.22-.05s.08-.11.12-.22Z"/>
    </g>
  </g>
</svg>