<svg id="Capa_2" data-name="Capa 2" xmlns="http://www.w3.org/2000/svg" viewBox="0 0 22.67 22.67">
  <defs>
    <style>
      .cls-1 {
        fill: #0c0100;
      }

      .cls-2 {
        fill: #feba24;
      }
    </style>
  </defs>
  <g id="Capa_1-2" data-name="Capa 1">
    <g id="logo">
      <g>
        <circle class="cls-1" cx="11.33" cy="11.33" r="10.56"/>
        <path class="cls-2" d="m11.33,22.67C5.08,22.67,0,17.58,0,11.33S5.08,0,11.33,0s11.33,5.08,11.33,11.33-5.08,11.33-11.33,11.33Zm0-21.13C5.94,1.54,1.54,5.94,1.54,11.33s4.39,9.79,9.79,9.79,9.79-4.39,9.79-9.79S16.73,1.54,11.33,1.54Z"/>
      </g>
      <polygon class="cls-2" points="7.3 6.34 8.6 7.05 8.6 8.1 7.3 9 7.3 6.34"/>
      <polygon class="cls-2" points="15.37 6.34 14.06 7.05 14.06 8.1 15.37 9 15.37 6.34"/>
      <path class="cls-2" d="m16.32,9.54s-2.11,1.57-2.73,2.14c-.63.57-2.25,2.41-2.25,2.41,0,0-1.63-1.84-2.25-2.41-.62-.56-2.73-2.14-2.73-2.14,0,0-1.07.71-1.19.71,0,0,2.49,1.91,3.2,2.61.83.82,2.97,3.47,2.97,3.47,0,0,2.14-2.65,2.97-3.47.71-.7,3.2-2.61,3.2-2.61-.12,0-1.19-.71-1.19-.71Z"/>
      <path class="cls-2" d="m12.28,11.44l1.66-1.54s-.2-.54-.71-.24c-.59.36-.95,1.78-.95,1.78Z"/>
      <path class="cls-2" d="m10.5,11.44l-1.66-1.54s.2-.54.71-.24c.59.36.95,1.78.95,1.78Z"/>
    </g>
  </g>
</svg>