<svg version="1.0" xmlns="http://www.w3.org/2000/svg"
  width="310.000000pt" height="310.000000pt" viewBox="0 0 310.000000 310.000000"
  preserveAspectRatio="xMidYMid meet">

  <g transform="translate(0.000000,310.000000) scale(0.100000,-0.100000)"
    fill="#000000" stroke="none">
    <path
      d="M1400 3094 c-365 -46 -685 -196 -932 -438 -233 -228 -375 -494 -440
-819 -32 -161 -32 -416 0 -574 113 -562 509 -1012 1045 -1187 156 -51 286 -70
477 -70 142 -1 196 4 287 22 562 113 1012 509 1187 1045 51 156 70 286 70 477
1 142 -4 196 -22 287 -127 632 -605 1111 -1230 1233 -104 21 -359 34 -442 24z
m188 -491 c15 -23 127 -215 240 -413 11 -19 99 -172 196 -340 97 -168 175
-309 173 -315 -3 -9 -75 -54 -87 -55 -3 0 -53 82 -110 181 -57 100 -105 178
-107 173 -8 -29 -53 -317 -53 -343 0 -68 55 -138 127 -162 53 -17 104 -4 204
53 50 28 94 47 98 42 4 -5 56 -94 115 -197 85 -147 107 -193 102 -212 l-6 -25
-635 0 -635 0 0 55 0 55 212 2 211 3 -137 112 c-156 128 -190 144 -264 124
-26 -7 -60 -24 -75 -39 -50 -47 -60 -78 -65 -199 l-5 -113 -226 0 c-231 0
-251 3 -251 38 0 13 231 423 251 446 10 12 102 -43 96 -57 -3 -7 -43 -79 -91
-161 -47 -82 -86 -151 -86 -153 0 -1 45 -3 100 -3 l100 0 0 60 c0 120 58 218
162 269 81 41 177 43 253 7 28 -13 161 -117 297 -230 137 -113 250 -206 253
-206 3 0 5 23 5 50 l0 50 185 0 c102 0 185 2 185 4 0 5 -89 158 -96 165 -2 2
-30 -9 -61 -25 -75 -37 -181 -45 -251 -19 -55 22 -127 85 -153 137 -45 89 -45
108 16 464 30 181 55 333 55 338 0 4 -21 -4 -46 -19 -37 -22 -48 -25 -55 -14
-5 8 -46 78 -91 157 -45 78 -85 142 -89 142 -7 0 -102 -161 -97 -165 2 -1 24
-13 50 -28 94 -54 148 -147 148 -257 0 -102 -51 -198 -133 -248 -35 -22 -627
-244 -639 -240 -6 3 337 606 355 624 8 8 97 -37 97 -49 0 -4 -45 -85 -99 -180
-55 -94 -98 -173 -96 -175 2 -3 75 22 161 54 175 64 215 92 235 166 13 48 2
109 -28 154 -9 14 -58 50 -110 80 -51 30 -93 59 -93 64 0 9 204 365 222 388
17 20 45 14 66 -15z" />
  </g>
</svg>